# xmcd
#
# Track frame offsets:
#	150
#	22615
#	43140
#	64637
#	84175
#	107417
#	124662
#	143217
#	158922
#	175007
#	192507
#	207967
#	225862
#	246000
#
# Disc length: 3569 seconds
#
# Revision: 1
# Processed by: cddbd v1.5.1PL0 Copyright (c) Steve Scherf et al.
# Submitted via: EasyCDDAExtractor 7.0.5.4
#
DISCID=a60def0e
DTITLE=Elkie Brooks - Anthology [CD1]
DYEAR=2000
DGENRE=Blues
TTITLE0=No More the Fool
TTITLE1=Only Women Bleed
TTITLE2=Break the Chain
TTITLE3=We've Got Tonight
TTITLE4=Don't Want to Cry No More
TTITLE5=Hold the Dream
TTITLE6=Sail On
TTITLE7=You Ain't Leaving
TTITLE8=Keep It a Secret
TTITLE9=When the Hero Walks Alone
TTITLE10=Kiss Me for the Last Time
TTITLE11=Love Is Love
TTITLE12=I Can Dream, Can't I?
TTITLE13=Only Love Will Set You Free
EXTD=
EXTT0=
EXTT1=
EXTT2=
EXTT3=
EXTT4=
EXTT5=
EXTT6=
EXTT7=
EXTT8=
EXTT9=
EXTT10=
EXTT11=
EXTT12=
EXTT13=
PLAYORDER=
